<svg width="200" height="200" viewBox="0 0 200 200" xmlns="http://www.w3.org/2000/svg">
  <defs>
    <radialGradient id="outerCircle" cx="50%" cy="50%" r="50%">
      <stop offset="0%" style="stop-color:#4A90E2;stop-opacity:1" />
      <stop offset="100%" style="stop-color:#357ABD;stop-opacity:1" />
    </radialGradient>
    <linearGradient id="innerShape" x1="0%" y1="0%" x2="100%" y2="100%">
      <stop offset="0%" style="stop-color:#E3F2FD;stop-opacity:1" />
      <stop offset="100%" style="stop-color:#BBDEFB;stop-opacity:1" />
    </linearGradient>
  </defs>

  <!-- Outer blue circle -->
  <circle cx="100" cy="100" r="90" fill="url(#outerCircle)" stroke="#2E5BBA" stroke-width="2"/>

  <!-- Inner S-shaped design -->
  <path d="M 60 70
           C 60 50, 90 40, 100 60
           C 110 40, 140 50, 140 70
           C 160 70, 160 100, 140 100
           C 140 120, 110 130, 100 110
           C 90 130, 60 120, 60 100
           C 40 100, 40 70, 60 70
           Z
           M 80 80
           C 80 75, 85 70, 90 70
           C 95 70, 100 75, 100 80
           C 100 85, 95 90, 90 90
           C 85 90, 80 85, 80 80
           Z"
        fill="url(#innerShape)"
        stroke="#90CAF9"
        stroke-width="1"/>
</svg>